<svg width="19" height="18" viewBox="0 0 19 18" fill="none" xmlns="http://www.w3.org/2000/svg">
<g clip-path="url(#clip0_964_1279)">
<path d="M18.4904 9.16863C18.4904 8.43117 18.4292 7.89303 18.2967 7.33496H9.6792V10.6634H14.7375C14.6355 11.4906 14.0848 12.7363 12.861 13.5734L12.8438 13.6848L15.5685 15.7475L15.7573 15.7659C17.491 14.2013 18.4904 11.8992 18.4904 9.16863Z" fill="#4285F4"/>
<path d="M9.67933 17.9384C12.1574 17.9384 14.2379 17.1411 15.7574 15.7659L12.8611 13.5734C12.0861 14.1015 11.0459 14.4703 9.67933 14.4703C7.25218 14.4703 5.19217 12.9057 4.45783 10.7432L4.35019 10.7521L1.51703 12.8947L1.47998 12.9954C2.98929 15.9252 6.08954 17.9384 9.67933 17.9384Z" fill="#34A853"/>
<path d="M4.45783 10.7431C4.26406 10.185 4.15193 9.58704 4.15193 8.9692C4.15193 8.35129 4.26406 7.75338 4.44763 7.19531L4.4425 7.07645L1.57383 4.89941L1.47998 4.94304C0.857916 6.15886 0.500977 7.52419 0.500977 8.9692C0.500977 10.4142 0.857916 11.7795 1.47998 12.9953L4.45783 10.7431Z" fill="#FBBC05"/>
<path d="M9.67933 3.46802C11.4028 3.46802 12.5654 4.19551 13.2283 4.80346L15.8186 2.33196C14.2277 0.886947 12.1574 0 9.67933 0C6.08954 0 2.98929 2.01305 1.47998 4.94292L4.44764 7.19519C5.19217 5.03265 7.25218 3.46802 9.67933 3.46802Z" fill="#EB4335"/>
</g>
<defs>
<clipPath id="clip0_964_1279">
<rect width="18" height="18" fill="white" transform="translate(0.5)"/>
</clipPath>
</defs>
</svg>
